<mxfile host="app.diagrams.net" agent="Mozilla/5.0 (Windows NT 10.0; Win64; x64; rv:141.0) Gecko/20100101 Firefox/141.0" version="28.0.7">
  <diagram name="Page-1" id="4mzt5Z0eW88a4MXR8VPS">
    <mxGraphModel dx="486" dy="856" grid="1" gridSize="10" guides="1" tooltips="1" connect="1" arrows="1" fold="1" page="1" pageScale="1" pageWidth="850" pageHeight="1100" math="0" shadow="0">
      <root>
        <mxCell id="0" />
        <mxCell id="1" parent="0" />
        <mxCell id="GDeSoaydJCArGi7cQpiK-2" value="Cell" style="swimlane;fontStyle=0;childLayout=stackLayout;horizontal=1;startSize=26;fillColor=#dae8fc;horizontalStack=0;resizeParent=1;resizeParentMax=0;resizeLast=0;collapsible=1;marginBottom=0;strokeColor=#6c8ebf;" vertex="1" parent="1">
          <mxGeometry x="2480" y="1530" width="240" height="130" as="geometry" />
        </mxCell>
        <mxCell id="GDeSoaydJCArGi7cQpiK-3" value="- id: String" style="text;strokeColor=none;fillColor=none;align=left;verticalAlign=top;spacingLeft=4;spacingRight=4;overflow=hidden;rotatable=0;points=[[0,0.5],[1,0.5]];portConstraint=eastwest;" vertex="1" parent="GDeSoaydJCArGi7cQpiK-2">
          <mxGeometry y="26" width="240" height="26" as="geometry" />
        </mxCell>
        <mxCell id="GDeSoaydJCArGi7cQpiK-4" value="- row: int" style="text;strokeColor=none;fillColor=none;align=left;verticalAlign=top;spacingLeft=4;spacingRight=4;overflow=hidden;rotatable=0;points=[[0,0.5],[1,0.5]];portConstraint=eastwest;" vertex="1" parent="GDeSoaydJCArGi7cQpiK-2">
          <mxGeometry y="52" width="240" height="26" as="geometry" />
        </mxCell>
        <mxCell id="GDeSoaydJCArGi7cQpiK-28" value="- column: int" style="text;strokeColor=none;fillColor=none;align=left;verticalAlign=top;spacingLeft=4;spacingRight=4;overflow=hidden;rotatable=0;points=[[0,0.5],[1,0.5]];portConstraint=eastwest;" vertex="1" parent="GDeSoaydJCArGi7cQpiK-2">
          <mxGeometry y="78" width="240" height="26" as="geometry" />
        </mxCell>
        <mxCell id="GDeSoaydJCArGi7cQpiK-29" value="- piece: Piece" style="text;strokeColor=none;fillColor=none;align=left;verticalAlign=top;spacingLeft=4;spacingRight=4;overflow=hidden;rotatable=0;points=[[0,0.5],[1,0.5]];portConstraint=eastwest;" vertex="1" parent="GDeSoaydJCArGi7cQpiK-2">
          <mxGeometry y="104" width="240" height="26" as="geometry" />
        </mxCell>
        <mxCell id="GDeSoaydJCArGi7cQpiK-5" value="" style="endArrow=open;endFill=1;endSize=12;html=1;rounded=0;entryX=0.001;entryY=0.092;entryDx=0;entryDy=0;exitX=1;exitY=0.25;exitDx=0;exitDy=0;entryPerimeter=0;" edge="1" parent="1" source="GDeSoaydJCArGi7cQpiK-25" target="GDeSoaydJCArGi7cQpiK-2">
          <mxGeometry width="160" relative="1" as="geometry">
            <mxPoint x="2279" y="1290" as="sourcePoint" />
            <mxPoint x="2590" y="1650" as="targetPoint" />
            <Array as="points" />
          </mxGeometry>
        </mxCell>
        <mxCell id="GDeSoaydJCArGi7cQpiK-9" value="WalkFactory" style="swimlane;fontStyle=1;align=center;verticalAlign=top;childLayout=stackLayout;horizontal=1;startSize=26;horizontalStack=0;resizeParent=1;resizeParentMax=0;resizeLast=0;collapsible=1;marginBottom=0;fillColor=#dae8fc;strokeColor=#6c8ebf;" vertex="1" parent="1">
          <mxGeometry x="1370" y="1325" width="460" height="60" as="geometry" />
        </mxCell>
        <mxCell id="GDeSoaydJCArGi7cQpiK-10" value="" style="line;strokeWidth=1;fillColor=none;align=left;verticalAlign=middle;spacingTop=-1;spacingLeft=3;spacingRight=3;rotatable=0;labelPosition=right;points=[];portConstraint=eastwest;" vertex="1" parent="GDeSoaydJCArGi7cQpiK-9">
          <mxGeometry y="26" width="460" height="8" as="geometry" />
        </mxCell>
        <mxCell id="GDeSoaydJCArGi7cQpiK-11" value="+ getWalkForPiece(type: PieceType): Walk" style="text;strokeColor=none;fillColor=none;align=left;verticalAlign=top;spacingLeft=4;spacingRight=4;overflow=hidden;rotatable=0;points=[[0,0.5],[1,0.5]];portConstraint=eastwest;" vertex="1" parent="GDeSoaydJCArGi7cQpiK-9">
          <mxGeometry y="34" width="460" height="26" as="geometry" />
        </mxCell>
        <mxCell id="GDeSoaydJCArGi7cQpiK-12" value="&lt;b&gt;Extends&lt;/b&gt;" style="endArrow=block;endSize=16;endFill=0;html=1;rounded=0;exitX=0.5;exitY=0;exitDx=0;exitDy=0;entryX=0.502;entryY=1.112;entryDx=0;entryDy=0;entryPerimeter=0;" edge="1" parent="1" source="GDeSoaydJCArGi7cQpiK-15">
          <mxGeometry width="160" relative="1" as="geometry">
            <mxPoint x="1589.5" y="1689.0000000000002" as="sourcePoint" />
            <mxPoint x="1590.48" y="1553.9119999999998" as="targetPoint" />
          </mxGeometry>
        </mxCell>
        <mxCell id="GDeSoaydJCArGi7cQpiK-13" value="«interface»Walk" style="swimlane;fontStyle=3;childLayout=stackLayout;horizontal=1;startSize=26;fillColor=#dae8fc;horizontalStack=0;resizeParent=1;resizeParentMax=0;resizeLast=0;collapsible=1;marginBottom=0;strokeColor=#6c8ebf;" vertex="1" parent="1">
          <mxGeometry x="1467.5" y="1500" width="240" height="52" as="geometry" />
        </mxCell>
        <mxCell id="GDeSoaydJCArGi7cQpiK-37" value="+ getAllPossibleMoves(): List&lt;Cell&gt;" style="text;strokeColor=none;fillColor=none;align=left;verticalAlign=top;spacingLeft=4;spacingRight=4;overflow=hidden;rotatable=0;points=[[0,0.5],[1,0.5]];portConstraint=eastwest;" vertex="1" parent="GDeSoaydJCArGi7cQpiK-13">
          <mxGeometry y="26" width="240" height="26" as="geometry" />
        </mxCell>
        <mxCell id="GDeSoaydJCArGi7cQpiK-15" value="KingWalk" style="swimlane;fontStyle=1;align=center;verticalAlign=top;childLayout=stackLayout;horizontal=1;startSize=26;horizontalStack=0;resizeParent=1;resizeParentMax=0;resizeLast=0;collapsible=1;marginBottom=0;fillColor=#dae8fc;strokeColor=#6c8ebf;" vertex="1" parent="1">
          <mxGeometry x="1460" y="1670" width="255" height="60" as="geometry" />
        </mxCell>
        <mxCell id="GDeSoaydJCArGi7cQpiK-18" value="" style="line;strokeWidth=1;fillColor=none;align=left;verticalAlign=middle;spacingTop=-1;spacingLeft=3;spacingRight=3;rotatable=0;labelPosition=right;points=[];portConstraint=eastwest;" vertex="1" parent="GDeSoaydJCArGi7cQpiK-15">
          <mxGeometry y="26" width="255" height="8" as="geometry" />
        </mxCell>
        <mxCell id="GDeSoaydJCArGi7cQpiK-38" value="+ getAllPossibleMoves(): List&lt;Cell&gt;" style="text;strokeColor=none;fillColor=none;align=left;verticalAlign=top;spacingLeft=4;spacingRight=4;overflow=hidden;rotatable=0;points=[[0,0.5],[1,0.5]];portConstraint=eastwest;" vertex="1" parent="GDeSoaydJCArGi7cQpiK-15">
          <mxGeometry y="34" width="255" height="26" as="geometry" />
        </mxCell>
        <mxCell id="GDeSoaydJCArGi7cQpiK-20" value="ChessService" style="swimlane;fontStyle=1;align=center;verticalAlign=top;childLayout=stackLayout;horizontal=1;startSize=26;horizontalStack=0;resizeParent=1;resizeParentMax=0;resizeLast=0;collapsible=1;marginBottom=0;fillColor=#dae8fc;strokeColor=#6c8ebf;" vertex="1" parent="1">
          <mxGeometry x="2150" y="1320" width="240" height="86" as="geometry" />
        </mxCell>
        <mxCell id="GDeSoaydJCArGi7cQpiK-22" value="" style="line;strokeWidth=1;fillColor=none;align=left;verticalAlign=middle;spacingTop=-1;spacingLeft=3;spacingRight=3;rotatable=0;labelPosition=right;points=[];portConstraint=eastwest;" vertex="1" parent="GDeSoaydJCArGi7cQpiK-20">
          <mxGeometry y="26" width="240" height="8" as="geometry" />
        </mxCell>
        <mxCell id="GDeSoaydJCArGi7cQpiK-23" value="+ startNewChessGame(): ChessBoard" style="text;strokeColor=none;fillColor=none;align=left;verticalAlign=top;spacingLeft=4;spacingRight=4;overflow=hidden;rotatable=0;points=[[0,0.5],[1,0.5]];portConstraint=eastwest;" vertex="1" parent="GDeSoaydJCArGi7cQpiK-20">
          <mxGeometry y="34" width="240" height="26" as="geometry" />
        </mxCell>
        <mxCell id="GDeSoaydJCArGi7cQpiK-36" value="+ getAllPossibleMovesForCell(): List&lt;Cell&gt;" style="text;strokeColor=none;fillColor=none;align=left;verticalAlign=top;spacingLeft=4;spacingRight=4;overflow=hidden;rotatable=0;points=[[0,0.5],[1,0.5]];portConstraint=eastwest;" vertex="1" parent="GDeSoaydJCArGi7cQpiK-20">
          <mxGeometry y="60" width="240" height="26" as="geometry" />
        </mxCell>
        <mxCell id="GDeSoaydJCArGi7cQpiK-25" value="ChessBoard" style="swimlane;fontStyle=0;childLayout=stackLayout;horizontal=1;startSize=26;fillColor=#dae8fc;horizontalStack=0;resizeParent=1;resizeParentMax=0;resizeLast=0;collapsible=1;marginBottom=0;strokeColor=#6c8ebf;align=center;verticalAlign=middle;fontFamily=Helvetica;fontSize=12;fontColor=default;" vertex="1" parent="1">
          <mxGeometry x="2150" y="1530" width="240" height="52" as="geometry" />
        </mxCell>
        <mxCell id="GDeSoaydJCArGi7cQpiK-26" value="- cells: Cells[][]" style="text;strokeColor=none;fillColor=none;align=left;verticalAlign=top;spacingLeft=4;spacingRight=4;overflow=hidden;rotatable=0;points=[[0,0.5],[1,0.5]];portConstraint=eastwest;fontFamily=Helvetica;fontSize=12;fontColor=default;fontStyle=0;horizontal=1;" vertex="1" parent="GDeSoaydJCArGi7cQpiK-25">
          <mxGeometry y="26" width="240" height="26" as="geometry" />
        </mxCell>
        <mxCell id="GDeSoaydJCArGi7cQpiK-30" value="Piece" style="swimlane;fontStyle=0;childLayout=stackLayout;horizontal=1;startSize=26;fillColor=#dae8fc;horizontalStack=0;resizeParent=1;resizeParentMax=0;resizeLast=0;collapsible=1;marginBottom=0;strokeColor=#6c8ebf;align=center;verticalAlign=middle;fontFamily=Helvetica;fontSize=12;fontColor=default;" vertex="1" parent="1">
          <mxGeometry x="2140" y="1608" width="240" height="78" as="geometry" />
        </mxCell>
        <mxCell id="GDeSoaydJCArGi7cQpiK-31" value="- type: PieceType&#xa;" style="text;strokeColor=none;fillColor=none;align=left;verticalAlign=top;spacingLeft=4;spacingRight=4;overflow=hidden;rotatable=0;points=[[0,0.5],[1,0.5]];portConstraint=eastwest;fontFamily=Helvetica;fontSize=12;fontColor=default;fontStyle=0;horizontal=1;" vertex="1" parent="GDeSoaydJCArGi7cQpiK-30">
          <mxGeometry y="26" width="240" height="26" as="geometry" />
        </mxCell>
        <mxCell id="GDeSoaydJCArGi7cQpiK-33" value="- currentPosition: Cell&#xa;" style="text;strokeColor=none;fillColor=none;align=left;verticalAlign=top;spacingLeft=4;spacingRight=4;overflow=hidden;rotatable=0;points=[[0,0.5],[1,0.5]];portConstraint=eastwest;fontFamily=Helvetica;fontSize=12;fontColor=default;fontStyle=0;horizontal=1;" vertex="1" parent="GDeSoaydJCArGi7cQpiK-30">
          <mxGeometry y="52" width="240" height="26" as="geometry" />
        </mxCell>
        <mxCell id="GDeSoaydJCArGi7cQpiK-34" value="" style="endArrow=open;endFill=1;endSize=12;html=1;rounded=0;entryX=1;entryY=0.25;entryDx=0;entryDy=0;exitX=0.016;exitY=0.781;exitDx=0;exitDy=0;exitPerimeter=0;" edge="1" parent="1" source="GDeSoaydJCArGi7cQpiK-28" target="GDeSoaydJCArGi7cQpiK-30">
          <mxGeometry width="160" relative="1" as="geometry">
            <mxPoint x="2430" y="1621" as="sourcePoint" />
            <mxPoint x="2520" y="1620" as="targetPoint" />
            <Array as="points" />
          </mxGeometry>
        </mxCell>
        <mxCell id="GDeSoaydJCArGi7cQpiK-39" value="&lt;enum&gt;&#xa;PieceType" style="swimlane;fontStyle=1;align=center;verticalAlign=top;childLayout=stackLayout;horizontal=1;startSize=40;horizontalStack=0;resizeParent=1;resizeParentMax=0;resizeLast=0;collapsible=1;marginBottom=0;fillColor=#dae8fc;strokeColor=#6c8ebf;" vertex="1" parent="1">
          <mxGeometry x="1360" y="1090" width="460" height="152" as="geometry" />
        </mxCell>
        <mxCell id="GDeSoaydJCArGi7cQpiK-40" value="" style="line;strokeWidth=1;fillColor=none;align=left;verticalAlign=middle;spacingTop=-1;spacingLeft=3;spacingRight=3;rotatable=0;labelPosition=right;points=[];portConstraint=eastwest;" vertex="1" parent="GDeSoaydJCArGi7cQpiK-39">
          <mxGeometry y="40" width="460" height="8" as="geometry" />
        </mxCell>
        <mxCell id="GDeSoaydJCArGi7cQpiK-42" value="+ King" style="text;strokeColor=none;fillColor=none;align=left;verticalAlign=top;spacingLeft=4;spacingRight=4;overflow=hidden;rotatable=0;points=[[0,0.5],[1,0.5]];portConstraint=eastwest;" vertex="1" parent="GDeSoaydJCArGi7cQpiK-39">
          <mxGeometry y="48" width="460" height="26" as="geometry" />
        </mxCell>
        <mxCell id="GDeSoaydJCArGi7cQpiK-41" value="+ Queen" style="text;strokeColor=none;fillColor=none;align=left;verticalAlign=top;spacingLeft=4;spacingRight=4;overflow=hidden;rotatable=0;points=[[0,0.5],[1,0.5]];portConstraint=eastwest;" vertex="1" parent="GDeSoaydJCArGi7cQpiK-39">
          <mxGeometry y="74" width="460" height="26" as="geometry" />
        </mxCell>
        <mxCell id="GDeSoaydJCArGi7cQpiK-43" value="+ Pawn" style="text;strokeColor=none;fillColor=none;align=left;verticalAlign=top;spacingLeft=4;spacingRight=4;overflow=hidden;rotatable=0;points=[[0,0.5],[1,0.5]];portConstraint=eastwest;" vertex="1" parent="GDeSoaydJCArGi7cQpiK-39">
          <mxGeometry y="100" width="460" height="26" as="geometry" />
        </mxCell>
        <mxCell id="GDeSoaydJCArGi7cQpiK-44" value="+ Horse" style="text;strokeColor=none;fillColor=none;align=left;verticalAlign=top;spacingLeft=4;spacingRight=4;overflow=hidden;rotatable=0;points=[[0,0.5],[1,0.5]];portConstraint=eastwest;" vertex="1" parent="GDeSoaydJCArGi7cQpiK-39">
          <mxGeometry y="126" width="460" height="26" as="geometry" />
        </mxCell>
        <mxCell id="GDeSoaydJCArGi7cQpiK-45" value="PawnWalk" style="swimlane;fontStyle=1;align=center;verticalAlign=top;childLayout=stackLayout;horizontal=1;startSize=26;horizontalStack=0;resizeParent=1;resizeParentMax=0;resizeLast=0;collapsible=1;marginBottom=0;fillColor=#dae8fc;strokeColor=#6c8ebf;" vertex="1" parent="1">
          <mxGeometry x="1735" y="1670" width="255" height="60" as="geometry" />
        </mxCell>
        <mxCell id="GDeSoaydJCArGi7cQpiK-46" value="" style="line;strokeWidth=1;fillColor=none;align=left;verticalAlign=middle;spacingTop=-1;spacingLeft=3;spacingRight=3;rotatable=0;labelPosition=right;points=[];portConstraint=eastwest;" vertex="1" parent="GDeSoaydJCArGi7cQpiK-45">
          <mxGeometry y="26" width="255" height="8" as="geometry" />
        </mxCell>
        <mxCell id="GDeSoaydJCArGi7cQpiK-47" value="+ getAllPossibleMoves(): List&lt;Cell&gt;" style="text;strokeColor=none;fillColor=none;align=left;verticalAlign=top;spacingLeft=4;spacingRight=4;overflow=hidden;rotatable=0;points=[[0,0.5],[1,0.5]];portConstraint=eastwest;" vertex="1" parent="GDeSoaydJCArGi7cQpiK-45">
          <mxGeometry y="34" width="255" height="26" as="geometry" />
        </mxCell>
        <mxCell id="GDeSoaydJCArGi7cQpiK-48" value="QueenWalk" style="swimlane;fontStyle=1;align=center;verticalAlign=top;childLayout=stackLayout;horizontal=1;startSize=26;horizontalStack=0;resizeParent=1;resizeParentMax=0;resizeLast=0;collapsible=1;marginBottom=0;fillColor=#dae8fc;strokeColor=#6c8ebf;" vertex="1" parent="1">
          <mxGeometry x="1160" y="1670" width="255" height="60" as="geometry" />
        </mxCell>
        <mxCell id="GDeSoaydJCArGi7cQpiK-49" value="" style="line;strokeWidth=1;fillColor=none;align=left;verticalAlign=middle;spacingTop=-1;spacingLeft=3;spacingRight=3;rotatable=0;labelPosition=right;points=[];portConstraint=eastwest;" vertex="1" parent="GDeSoaydJCArGi7cQpiK-48">
          <mxGeometry y="26" width="255" height="8" as="geometry" />
        </mxCell>
        <mxCell id="GDeSoaydJCArGi7cQpiK-50" value="+ getAllPossibleMoves(): List&lt;Cell&gt;" style="text;strokeColor=none;fillColor=none;align=left;verticalAlign=top;spacingLeft=4;spacingRight=4;overflow=hidden;rotatable=0;points=[[0,0.5],[1,0.5]];portConstraint=eastwest;" vertex="1" parent="GDeSoaydJCArGi7cQpiK-48">
          <mxGeometry y="34" width="255" height="26" as="geometry" />
        </mxCell>
        <mxCell id="GDeSoaydJCArGi7cQpiK-54" value="&lt;b&gt;Extends&lt;/b&gt;" style="endArrow=block;endSize=16;endFill=0;html=1;rounded=0;exitX=0.5;exitY=0;exitDx=0;exitDy=0;entryX=0.502;entryY=1.112;entryDx=0;entryDy=0;entryPerimeter=0;" edge="1" parent="1" source="GDeSoaydJCArGi7cQpiK-45">
          <mxGeometry width="160" relative="1" as="geometry">
            <mxPoint x="1586.2600000000002" y="1669.9980000000003" as="sourcePoint" />
            <mxPoint x="1588.7400000000002" y="1553.91" as="targetPoint" />
          </mxGeometry>
        </mxCell>
        <mxCell id="GDeSoaydJCArGi7cQpiK-56" value="&lt;b&gt;Extends&lt;/b&gt;" style="endArrow=block;endSize=16;endFill=0;html=1;rounded=0;exitX=0.5;exitY=0;exitDx=0;exitDy=0;entryX=0.502;entryY=1.112;entryDx=0;entryDy=0;entryPerimeter=0;" edge="1" parent="1" source="GDeSoaydJCArGi7cQpiK-48">
          <mxGeometry width="160" relative="1" as="geometry">
            <mxPoint x="1586.2600000000002" y="1669.9980000000003" as="sourcePoint" />
            <mxPoint x="1588.7400000000002" y="1553.91" as="targetPoint" />
          </mxGeometry>
        </mxCell>
        <mxCell id="GDeSoaydJCArGi7cQpiK-57" value="" style="endArrow=open;endFill=1;endSize=12;html=1;rounded=0;entryX=0.5;entryY=0;entryDx=0;entryDy=0;" edge="1" parent="1" source="GDeSoaydJCArGi7cQpiK-36" target="GDeSoaydJCArGi7cQpiK-25">
          <mxGeometry width="160" relative="1" as="geometry">
            <mxPoint x="2215" y="1421" as="sourcePoint" />
            <mxPoint x="2305" y="1420" as="targetPoint" />
            <Array as="points" />
          </mxGeometry>
        </mxCell>
        <mxCell id="GDeSoaydJCArGi7cQpiK-58" value="" style="endArrow=open;endFill=1;endSize=12;html=1;rounded=0;entryX=0;entryY=0.25;entryDx=0;entryDy=0;exitX=1;exitY=0.25;exitDx=0;exitDy=0;" edge="1" parent="1" source="GDeSoaydJCArGi7cQpiK-9" target="GDeSoaydJCArGi7cQpiK-20">
          <mxGeometry width="160" relative="1" as="geometry">
            <mxPoint x="1930" y="1460" as="sourcePoint" />
            <mxPoint x="1960" y="1344" as="targetPoint" />
            <Array as="points" />
          </mxGeometry>
        </mxCell>
        <mxCell id="GDeSoaydJCArGi7cQpiK-59" value="" style="endArrow=open;endFill=1;endSize=12;html=1;rounded=0;exitX=0.526;exitY=1.09;exitDx=0;exitDy=0;exitPerimeter=0;entryX=0.5;entryY=0;entryDx=0;entryDy=0;" edge="1" parent="1" source="GDeSoaydJCArGi7cQpiK-44" target="GDeSoaydJCArGi7cQpiK-9">
          <mxGeometry width="160" relative="1" as="geometry">
            <mxPoint x="1845" y="1190" as="sourcePoint" />
            <mxPoint x="1650" y="1300" as="targetPoint" />
            <Array as="points" />
          </mxGeometry>
        </mxCell>
        <mxCell id="GDeSoaydJCArGi7cQpiK-60" value="" style="endArrow=open;endFill=1;endSize=12;html=1;rounded=0;entryX=0.523;entryY=1.158;entryDx=0;entryDy=0;entryPerimeter=0;" edge="1" parent="1">
          <mxGeometry width="160" relative="1" as="geometry">
            <mxPoint x="1602" y="1499" as="sourcePoint" />
            <mxPoint x="1600.5" y="1385" as="targetPoint" />
            <Array as="points" />
          </mxGeometry>
        </mxCell>
      </root>
    </mxGraphModel>
  </diagram>
</mxfile>
